<?xml version="1.0" encoding="UTF-8"?>
<!DOCTYPE svg PUBLIC "-//W3C//DTD SVG 1.1//EN" "http://www.w3.org/Graphics/SVG/1.1/DTD/svg11.dtd">
<svg xmlns="http://www.w3.org/2000/svg" version="1.1" width="244px" height="100px" style="shape-rendering:geometricPrecision; text-rendering:geometricPrecision; image-rendering:optimizeQuality; fill-rule:evenodd; clip-rule:evenodd" xmlns:xlink="http://www.w3.org/1999/xlink">
<g><path style="opacity:1" fill="#2f8854" d="M 65.5,11.5 C 64.1667,11.8333 64.1667,12.1667 65.5,12.5C 65.8333,13.8333 66.1667,13.8333 66.5,12.5C 69.4475,12.2229 72.2809,12.5562 75,13.5C 75.1667,14.3333 75.3333,15.1667 75.5,16C 73.8395,17.8421 72.8395,20.0088 72.5,22.5C 70.3393,22.1742 68.5059,21.1742 67,19.5C 65.4443,20.5196 64.2776,21.853 63.5,23.5C 63.5427,24.4164 63.8761,25.0831 64.5,25.5C 64.3284,26.4916 64.6618,27.1583 65.5,27.5C 65.5,27.8333 65.5,28.1667 65.5,28.5C 64.5,29.5 63.5,30.5 62.5,31.5C 61.609,30.8902 60.609,30.5569 59.5,30.5C 58.8333,30.5 58.5,30.8333 58.5,31.5C 58.1667,31.5 57.8333,31.5 57.5,31.5C 57.5,30.8333 57.1667,30.5 56.5,30.5C 56.1667,30.5 55.8333,30.5 55.5,30.5C 54.8333,30.5 54.5,30.8333 54.5,31.5C 53.8333,31.5 53.1667,31.5 52.5,31.5C 52.1583,30.6618 51.4916,30.3284 50.5,30.5C 49.8333,30.5 49.1667,30.5 48.5,30.5C 47.8333,30.5 47.5,30.8333 47.5,31.5C 46.6726,32.4387 46.0059,32.1054 45.5,30.5C 45.5,29.8333 45.1667,29.5 44.5,29.5C 44.1583,28.6618 43.4916,28.3284 42.5,28.5C 39.8001,26.954 37.9668,24.6206 37,21.5C 36.7826,16.4473 36.2826,11.4473 35.5,6.5C 36.0016,5.28356 36.3349,4.1169 36.5,3C 43.5,2.33333 50.5,2.33333 57.5,3C 60.7098,5.37485 63.3765,8.20819 65.5,11.5 Z"/></g>
<g><path style="opacity:1" fill="#189b54" d="M 62.5,19.5 C 62.5,22.5 62.5,25.5 62.5,28.5C 57.0735,28.7825 51.7401,28.4491 46.5,27.5C 46.2178,26.2223 45.5511,25.2223 44.5,24.5C 45.9953,24.5852 46.9953,23.9185 47.5,22.5C 52.6742,21.9939 57.6742,20.9939 62.5,19.5 Z"/></g>
<g><path style="opacity:1" fill="#179c4f" d="M 62.5,16.5 C 62.5,17.5 62.5,18.5 62.5,19.5C 57.6742,20.9939 52.6742,21.9939 47.5,22.5C 46.9953,23.9185 45.9953,24.5852 44.5,24.5C 40.8295,21.7507 39.6628,18.0841 41,13.5C 43.6685,14.7474 45.5019,16.7474 46.5,19.5C 49.4771,17.2965 52.6437,16.9632 56,18.5C 57,17.8333 58,17.1667 59,16.5C 60.1455,17.6843 61.3121,17.6843 62.5,16.5 Z"/></g>
<g><path style="opacity:1" fill="#189a54" d="M 52.5,5.5 C 48.1578,5.73948 43.8244,6.07281 39.5,6.5C 39.3505,7.55198 39.5172,8.55198 40,9.5C 41.7297,9.50916 43.563,9.84249 45.5,10.5C 45.7121,14.5577 47.7121,16.0577 51.5,15C 49.2542,13.7432 47.9209,11.9099 47.5,9.5C 49.1992,9.33982 50.8659,9.50649 52.5,10C 54.4531,13.2843 57.1198,14.1176 60.5,12.5C 62.1042,13.287 62.7709,14.6203 62.5,16.5C 61.3121,17.6843 60.1455,17.6843 59,16.5C 58,17.1667 57,17.8333 56,18.5C 52.6437,16.9632 49.4771,17.2965 46.5,19.5C 45.5019,16.7474 43.6685,14.7474 41,13.5C 39.6628,18.0841 40.8295,21.7507 44.5,24.5C 45.5511,25.2223 46.2178,26.2223 46.5,27.5C 43.5722,26.4086 41.4055,24.4086 40,21.5C 38.8686,15.888 38.3686,10.2213 38.5,4.5C 43.3633,4.18054 48.03,4.51388 52.5,5.5 Z"/></g>
<g><path style="opacity:1" fill="#169d52" d="M 52.5,5.5 C 56.9997,5.6627 59.6664,7.99604 60.5,12.5C 57.1198,14.1176 54.4531,13.2843 52.5,10C 50.8659,9.50649 49.1992,9.33982 47.5,9.5C 47.9209,11.9099 49.2542,13.7432 51.5,15C 47.7121,16.0577 45.7121,14.5577 45.5,10.5C 43.563,9.84249 41.7297,9.50916 40,9.5C 39.5172,8.55198 39.3505,7.55198 39.5,6.5C 43.8244,6.07281 48.1578,5.73948 52.5,5.5 Z"/></g>
<g><path style="opacity:1" fill="#1c9853" d="M 74.5,43.5 C 72.6908,42.5188 71.3574,41.0188 70.5,39C 69.552,38.5172 68.552,38.3505 67.5,38.5C 67.5,38.1667 67.5,37.8333 67.5,37.5C 67.1667,36.1667 66.8333,34.8333 66.5,33.5C 65.1667,32.5 65.1667,31.5 66.5,30.5C 67.968,29.2209 68.6347,27.5542 68.5,25.5C 72.8333,25.5 77.1667,25.5 81.5,25.5C 82.1389,27.7604 83.3055,29.7604 85,31.5C 85.6667,35.1667 85.6667,38.8333 85,42.5C 81.6064,43.4558 78.1064,43.7892 74.5,43.5 Z"/></g>
<g><path style="opacity:0.549" fill="#387755" d="M 74.5,43.5 C 78.1064,43.7892 81.6064,43.4558 85,42.5C 85.6667,38.8333 85.6667,35.1667 85,31.5C 83.3055,29.7604 82.1389,27.7604 81.5,25.5C 77.1667,25.5 72.8333,25.5 68.5,25.5C 68.6347,27.5542 67.968,29.2209 66.5,30.5C 65.6618,30.1583 65.3284,29.4916 65.5,28.5C 65.5,28.1667 65.5,27.8333 65.5,27.5C 65.6716,26.5084 65.3382,25.8417 64.5,25.5C 63.8761,25.0831 63.5427,24.4164 63.5,23.5C 64.2776,21.853 65.4443,20.5196 67,19.5C 68.5059,21.1742 70.3393,22.1742 72.5,22.5C 72.8395,20.0088 73.8395,17.8421 75.5,16C 75.3333,15.1667 75.1667,14.3333 75,13.5C 72.2809,12.5562 69.4475,12.2229 66.5,12.5C 66.1667,12.5 65.8333,12.5 65.5,12.5C 65.5,12.1667 65.5,11.8333 65.5,11.5C 68.9984,10.6026 72.6651,10.7692 76.5,12C 77.8333,13 77.8333,14 76.5,15C 78.8912,15.6914 78.8912,16.6914 76.5,18C 76.9574,18.414 77.2907,18.914 77.5,19.5C 76.5,20.3333 75.5,21.1667 74.5,22C 80.1977,22.1291 84.3643,24.9625 87,30.5C 87.6667,34.8333 87.6667,39.1667 87,43.5C 85.9148,44.2931 84.7481,44.9598 83.5,45.5C 80.4481,44.6893 77.6148,44.6893 75,45.5C 74.5357,44.9056 74.369,44.2389 74.5,43.5 Z"/></g>
<g><path style="opacity:1" fill="#219154" d="M 62.5,47.5 C 62.5,43.5 62.5,39.5 62.5,35.5C 57.5,35.5 52.5,35.5 47.5,35.5C 42.4889,35.3341 37.4889,35.5007 32.5,36C 31.6667,36.8333 30.8333,37.6667 30,38.5C 26.3027,37.1061 22.9693,37.7727 20,40.5C 19.5172,41.448 19.3505,42.448 19.5,43.5C 23.052,43.5791 25.8854,42.2457 28,39.5C 29.1217,41.6238 30.6217,43.4571 32.5,45C 37.5329,45.171 42.5329,45.671 47.5,46.5C 46.1285,48.6198 46.7952,49.6198 49.5,49.5C 50.1217,50.6266 50.955,51.6266 52,52.5C 52.5343,56.859 52.3676,61.1924 51.5,65.5C 51.4894,67.0174 50.8228,68.1841 49.5,69C 47.5318,70.5442 45.3651,71.7109 43,72.5C 42.5172,73.448 42.3505,74.448 42.5,75.5C 42.5,75.8333 42.5,76.1667 42.5,76.5C 41.8333,76.5 41.1667,76.5 40.5,76.5C 37.6267,73.3492 37.96,70.6825 41.5,68.5C 43.0269,68.573 44.0269,67.9063 44.5,66.5C 51.1443,62.25 51.811,57.25 46.5,51.5C 45.5169,50.1497 44.1836,49.1497 42.5,48.5C 34.8333,47.1667 27.1667,47.1667 19.5,48.5C 18.3249,59.0679 18.3249,69.4013 19.5,79.5C 19.1142,84.1761 18.1142,88.6761 16.5,93C 12.2452,93.7961 8.0785,93.6295 4,92.5C 3.33333,81.5 3.33333,70.5 4,59.5C 4.38258,58.944 4.88258,58.6107 5.5,58.5C 5.5,69.8333 5.5,81.1667 5.5,92.5C 9.10636,92.7892 12.6064,92.4558 16,91.5C 16.6667,89.8333 16.6667,88.1667 16,86.5C 15.6924,87.3081 15.1924,87.9747 14.5,88.5C 13.7379,87.3717 13.0712,86.2051 12.5,85C 13.8491,84.2276 14.6824,83.0609 15,81.5C 15.3333,82.1667 15.6667,82.8333 16,83.5C 16.4996,76.5079 16.6663,69.5079 16.5,62.5C 17.6945,57.4952 16.6945,52.9952 13.5,49C 14.7588,48.0766 16.0921,47.2432 17.5,46.5C 16.4091,45.1124 15.0758,44.6124 13.5,45C 11.4598,47.1851 10.1264,49.6851 9.5,52.5C 7.92635,53.9842 6.59302,55.6508 5.5,57.5C 5.88085,53.9756 6.88085,50.6423 8.5,47.5C 12.4939,44.1727 16.1606,40.5061 19.5,36.5C 31.4848,35.3262 43.3181,33.9928 55,32.5C 57.6503,32.8432 60.4836,33.5099 63.5,34.5C 63.8182,39.0323 63.4849,43.3656 62.5,47.5 Z M 46.5,51.5 C 51.811,57.25 51.1443,62.25 44.5,66.5C 44.5,65.8333 44.1667,65.5 43.5,65.5C 44.008,62.6114 44.6747,59.7781 45.5,57C 44.5265,53.3598 42.1932,51.0264 38.5,50C 41.1738,50.1529 43.8405,50.6529 46.5,51.5 Z M 43.5,65.5 C 44.1667,65.5 44.5,65.8333 44.5,66.5C 44.0269,67.9063 43.0269,68.573 41.5,68.5C 41.5,67.8333 41.1667,67.5 40.5,67.5C 41.2905,66.5987 42.2905,65.9321 43.5,65.5 Z"/></g>
<g><path style="opacity:1" fill="#169c52" d="M 47.5,35.5 C 51.3123,36.3238 55.3123,36.8238 59.5,37C 60.3081,37.3076 60.9747,37.8076 61.5,38.5C 59.604,39.4656 57.604,39.7989 55.5,39.5C 53.2075,39.2436 51.0408,39.5769 49,40.5C 48.3076,39.9747 47.8076,39.3081 47.5,38.5C 42.8687,37.3384 38.202,37.1717 33.5,38C 32.0267,38.7096 31.3601,39.8762 31.5,41.5C 36.8746,41.1718 42.2079,41.5052 47.5,42.5C 49.942,44.0436 51.942,46.0436 53.5,48.5C 52.3112,49.4287 50.9778,49.762 49.5,49.5C 46.7952,49.6198 46.1285,48.6198 47.5,46.5C 42.5329,45.671 37.5329,45.171 32.5,45C 30.6217,43.4571 29.1217,41.6238 28,39.5C 25.8854,42.2457 23.052,43.5791 19.5,43.5C 19.3505,42.448 19.5172,41.448 20,40.5C 22.9693,37.7727 26.3027,37.1061 30,38.5C 30.8333,37.6667 31.6667,36.8333 32.5,36C 37.4889,35.5007 42.4889,35.3341 47.5,35.5 Z"/></g>
<g><path style="opacity:1" fill="#189b54" d="M 55.5,39.5 C 55.3832,41.4835 56.0499,43.1502 57.5,44.5C 54.8997,47.041 54.8997,49.541 57.5,52C 56.944,52.3826 56.6107,52.8826 56.5,53.5C 55.5,53.5 54.5,53.5 53.5,53.5C 53.2739,56.2492 53.6072,58.9159 54.5,61.5C 53.3063,62.7992 52.3063,64.1325 51.5,65.5C 52.3676,61.1924 52.5343,56.859 52,52.5C 50.955,51.6266 50.1217,50.6266 49.5,49.5C 50.9778,49.762 52.3112,49.4287 53.5,48.5C 51.942,46.0436 49.942,44.0436 47.5,42.5C 42.2079,41.5052 36.8746,41.1718 31.5,41.5C 31.3601,39.8762 32.0267,38.7096 33.5,38C 38.202,37.1717 42.8687,37.3384 47.5,38.5C 47.8076,39.3081 48.3076,39.9747 49,40.5C 51.0408,39.5769 53.2075,39.2436 55.5,39.5 Z"/></g>
<g><path style="opacity:1" fill="#1a9a54" d="M 47.5,35.5 C 52.5,35.5 57.5,35.5 62.5,35.5C 62.5,39.5 62.5,43.5 62.5,47.5C 62.5676,55.5136 62.901,63.5136 63.5,71.5C 63.5,72.5 63.5,73.5 63.5,74.5C 63.1667,74.5 62.8333,74.5 62.5,74.5C 60.3757,76.0592 58.709,78.0592 57.5,80.5C 57.9926,78.1944 58.3259,75.861 58.5,73.5C 56.5,73.8333 54.5,74.1667 52.5,74.5C 53.8989,70.8243 55.2323,67.1576 56.5,63.5C 57.5,63.5 58.5,63.5 59.5,63.5C 59.6646,60.4816 59.498,57.4816 59,54.5C 58.3292,53.7476 57.4959,53.4142 56.5,53.5C 56.6107,52.8826 56.944,52.3826 57.5,52C 54.8997,49.541 54.8997,47.041 57.5,44.5C 56.0499,43.1502 55.3832,41.4835 55.5,39.5C 57.604,39.7989 59.604,39.4656 61.5,38.5C 60.9747,37.8076 60.3081,37.3076 59.5,37C 55.3123,36.8238 51.3123,36.3238 47.5,35.5 Z"/></g>
<g><path style="opacity:0.569" fill="#377b56" d="M 42.5,28.5 C 43.4916,28.3284 44.1583,28.6618 44.5,29.5C 45.1667,29.5 45.5,29.8333 45.5,30.5C 46.0059,32.1054 46.6726,32.4387 47.5,31.5C 48.1667,31.5 48.5,31.1667 48.5,30.5C 49.1667,30.5 49.8333,30.5 50.5,30.5C 50.8417,31.3382 51.5084,31.6716 52.5,31.5C 53.1667,31.5 53.8333,31.5 54.5,31.5C 55.1667,31.5 55.5,31.1667 55.5,30.5C 55.8333,30.5 56.1667,30.5 56.5,30.5C 57.1667,30.5 57.5,30.8333 57.5,31.5C 57.8333,31.5 58.1667,31.5 58.5,31.5C 59.1667,31.5 59.5,31.1667 59.5,30.5C 60.609,30.5569 61.609,30.8902 62.5,31.5C 64.3786,31.3932 64.7119,31.8932 63.5,33C 64.2266,34.3988 64.7266,35.8988 65,37.5C 65.21,35.9419 65.71,34.6085 66.5,33.5C 66.8333,34.8333 67.1667,36.1667 67.5,37.5C 66.1667,37.8333 66.1667,38.1667 67.5,38.5C 68.552,38.3505 69.552,38.5172 70.5,39C 71.3574,41.0188 72.6908,42.5188 74.5,43.5C 72.4947,44.1236 70.8281,43.2903 69.5,41C 68.552,40.5172 67.552,40.3505 66.5,40.5C 66.7892,44.1064 66.4558,47.6064 65.5,51C 66.0944,51.4643 66.7611,51.631 67.5,51.5C 66.5843,56.1233 66.5843,60.6233 67.5,65C 66.8333,65.3333 66.1667,65.6667 65.5,66C 66.2524,66.6708 66.5858,67.5041 66.5,68.5C 64.4935,67.3215 64.1602,67.8215 65.5,70C 64.9558,70.7172 64.2891,71.2172 63.5,71.5C 62.901,63.5136 62.5676,55.5136 62.5,47.5C 63.4849,43.3656 63.8182,39.0323 63.5,34.5C 60.4836,33.5099 57.6503,32.8432 55,32.5C 43.3181,33.9928 31.4848,35.3262 19.5,36.5C 22.135,34.672 25.135,33.5053 28.5,33C 33.4889,32.5007 38.4889,32.3341 43.5,32.5C 43.5674,31.0413 43.2341,29.7079 42.5,28.5 Z"/></g>
<g><path style="opacity:0.008" fill="#7f807f" d="M 70.5,49.5 C 71.8333,50.1667 71.8333,50.1667 70.5,49.5 Z"/></g>
<g><path style="opacity:0.004" fill="#16241d" d="M 114.5,50.5 C 114.897,49.475 115.563,49.3083 116.5,50C 115.906,50.4643 115.239,50.631 114.5,50.5 Z"/></g>
<g><path style="opacity:0.024" fill="#2a5554" d="M 82.5,52.5 C 83.8333,53.1667 83.8333,53.1667 82.5,52.5 Z"/></g>
<g><path style="opacity:0.004" fill="#000000" d="M 95.5,55.5 C 95.8966,54.475 96.5632,54.3083 97.5,55C 96.9056,55.4643 96.2389,55.631 95.5,55.5 Z"/></g>
<g><path style="opacity:0.004" fill="#000000" d="M 190.5,56.5 C 189.833,55.1667 189.833,55.1667 190.5,56.5 Z"/></g>
<g><path style="opacity:0.004" fill="#000000" d="M 195.5,56.5 C 194.833,55.1667 194.833,55.1667 195.5,56.5 Z"/></g>
<g><path style="opacity:1" fill="#159d52" d="M 16.5,62.5 C 15.2652,62.7214 14.2652,63.3881 13.5,64.5C 10.0746,61.3191 8.74127,57.3191 9.5,52.5C 10.1264,49.6851 11.4598,47.1851 13.5,45C 15.0758,44.6124 16.4091,45.1124 17.5,46.5C 16.0921,47.2432 14.7588,48.0766 13.5,49C 16.6945,52.9952 17.6945,57.4952 16.5,62.5 Z"/></g>
<g><path style="opacity:1" fill="#1b693e" d="M 138.5,56.5 C 138.833,56.5 139.167,56.5 139.5,56.5C 141.028,57.8021 142.028,59.4687 142.5,61.5C 142.5,64.8333 142.5,68.1667 142.5,71.5C 139.306,71.2695 136.306,71.9362 133.5,73.5C 130.898,72.5656 128.898,70.8989 127.5,68.5C 127.297,66.6096 127.963,65.1096 129.5,64C 128.403,59.7726 128.736,59.606 130.5,63.5C 130.5,64.1667 130.833,64.5 131.5,64.5C 131.833,64.5 132.167,64.5 132.5,64.5C 133.833,65.1667 133.833,65.8333 132.5,66.5C 133.5,67.8333 134.5,67.8333 135.5,66.5C 136.167,66.5 136.5,66.1667 136.5,65.5C 136.833,65.5 137.167,65.5 137.5,65.5C 138.952,61.4089 137.285,59.2423 132.5,59C 134.811,58.7641 136.811,57.9307 138.5,56.5 Z M 135.5,66.5 C 134.5,67.8333 133.5,67.8333 132.5,66.5C 133.833,65.8333 133.833,65.1667 132.5,64.5C 132.577,63.2502 133.244,62.4169 134.5,62C 132.068,60.9125 132.402,60.4125 135.5,60.5C 135.046,62.7411 135.046,64.7411 135.5,66.5 Z"/></g>
<g><path style="opacity:0.97" fill="#21623b" d="M 225.5,69.5 C 226.833,67.8333 226.833,66.1667 225.5,64.5C 225.5,64.1667 225.5,63.8333 225.5,63.5C 226.117,63.3893 226.617,63.056 227,62.5C 228.009,71.5437 229.175,71.3771 230.5,62C 230.129,60.3967 229.795,58.8967 229.5,57.5C 231.109,56.2291 232.942,55.2291 235,54.5C 236.667,55.5 238.333,56.5 240,57.5C 240.346,59.2182 240.846,60.8849 241.5,62.5C 240.593,65.4212 240.26,68.4212 240.5,71.5C 238.833,71.5 237.167,71.5 235.5,71.5C 235.665,68.1501 235.498,64.8168 235,61.5C 233.415,62.3757 232.415,63.7091 232,65.5C 231.667,64.8333 231.333,64.1667 231,63.5C 230.503,66.146 230.336,68.8127 230.5,71.5C 228.302,71.8799 226.635,71.2132 225.5,69.5 Z"/></g>
<g><path style="opacity:0.8" fill="#1b683c" d="M 114.5,50.5 C 115.106,54.4594 115.773,58.4594 116.5,62.5C 117.298,62.0431 117.631,61.3764 117.5,60.5C 118.158,59.6016 118.824,58.6016 119.5,57.5C 118.909,60.0264 119.576,62.3597 121.5,64.5C 121.5,66.8333 121.5,69.1667 121.5,71.5C 120.022,71.762 118.689,71.4287 117.5,70.5C 117.138,68.4676 116.805,66.4676 116.5,64.5C 115.526,66.7427 115.192,69.076 115.5,71.5C 114.5,71.5 113.5,71.5 112.5,71.5C 110.26,70.7356 107.927,69.9023 105.5,69C 106.066,68.0053 106.733,67.172 107.5,66.5C 107.435,66.9382 107.601,67.2716 108,67.5C 108.318,65.9391 109.151,64.7724 110.5,64C 109.944,63.6174 109.611,63.1174 109.5,62.5C 110.833,62.1667 110.833,61.8333 109.5,61.5C 109.44,60.9569 109.107,60.6236 108.5,60.5C 107.818,61.2427 107.151,61.9094 106.5,62.5C 106.5,62.1667 106.5,61.8333 106.5,61.5C 106.167,60.1667 105.833,60.1667 105.5,61.5C 103.822,62.7471 102.489,64.4138 101.5,66.5C 100.307,62.8554 100.974,59.5221 103.5,56.5C 107.166,54.5028 110.833,52.5028 114.5,50.5 Z M 109.5,61.5 C 108.167,61.8333 108.167,62.1667 109.5,62.5C 109.611,63.1174 109.944,63.6174 110.5,64C 109.151,64.7724 108.318,65.9391 108,67.5C 107.601,67.2716 107.435,66.9382 107.5,66.5C 107.5,65.1667 106.833,64.5 105.5,64.5C 105.5,64.1667 105.5,63.8333 105.5,63.5C 106.167,63.5 106.5,63.1667 106.5,62.5C 107.151,61.9094 107.818,61.2427 108.5,60.5C 109.107,60.6236 109.44,60.9569 109.5,61.5 Z"/></g>
<g><path style="opacity:0.91" fill="#22643e" d="M 119.5,55.5 C 119.56,56.0431 119.893,56.3764 120.5,56.5C 123.88,54.5582 126.713,54.8915 129,57.5C 129.333,56.8333 129.667,56.1667 130,55.5C 133.012,55.4788 135.845,55.8121 138.5,56.5C 136.811,57.9307 134.811,58.7641 132.5,59C 137.285,59.2423 138.952,61.4089 137.5,65.5C 137.167,61.5 136.833,61.5 136.5,65.5C 136.5,66.1667 136.167,66.5 135.5,66.5C 135.046,64.7411 135.046,62.7411 135.5,60.5C 132.402,60.4125 132.068,60.9125 134.5,62C 133.244,62.4169 132.577,63.2502 132.5,64.5C 132.167,64.5 131.833,64.5 131.5,64.5C 130.833,64.5 130.5,64.1667 130.5,63.5C 128.736,59.606 128.403,59.7726 129.5,64C 127.963,65.1096 127.297,66.6096 127.5,68.5C 126.637,69.463 125.97,69.463 125.5,68.5C 126.562,65.8971 126.728,63.2305 126,60.5C 125.667,61.5 125.333,62.5 125,63.5C 123.841,62.434 123.008,62.7673 122.5,64.5C 122.167,64.5 121.833,64.5 121.5,64.5C 119.576,62.3597 118.909,60.0264 119.5,57.5C 118.824,58.6016 118.158,59.6016 117.5,60.5C 116.445,57.9272 116.278,55.2605 117,52.5C 117.377,53.9423 118.21,54.9423 119.5,55.5 Z"/></g>
<g><path style="opacity:0.004" fill="#000000" d="M 119.5,54.5 C 120.833,55.1667 120.833,55.1667 119.5,54.5 Z"/></g>
<g><path style="opacity:0.414" fill="#276b43" d="M 155.5,57.5 C 155.249,59.1703 154.582,60.6703 153.5,62C 154.516,62.5194 155.182,63.3527 155.5,64.5C 155.154,65.8492 154.821,67.1825 154.5,68.5C 152.493,69.6785 152.16,69.1785 153.5,67C 152.91,65.4905 152.244,63.9905 151.5,62.5C 150.686,64.7662 150.186,67.0995 150,69.5C 149.667,67.5 149.333,65.5 149,63.5C 148.503,66.146 148.336,68.8127 148.5,71.5C 146.833,71.5 145.167,71.5 143.5,71.5C 143.813,67.9581 143.479,64.6248 142.5,61.5C 142.028,59.4687 141.028,57.8021 139.5,56.5C 140.672,55.2947 142.005,55.2947 143.5,56.5C 144.192,55.9747 144.692,55.3081 145,54.5C 145.388,55.428 146.055,56.0946 147,56.5C 150.075,55.0716 152.909,55.4049 155.5,57.5 Z"/></g>
<g><path style="opacity:1" fill="#179c53" d="M 9.5,52.5 C 8.74127,57.3191 10.0746,61.3191 13.5,64.5C 14.2652,63.3881 15.2652,62.7214 16.5,62.5C 16.6663,69.5079 16.4996,76.5079 16,83.5C 15.6667,82.8333 15.3333,82.1667 15,81.5C 14.6824,83.0609 13.8491,84.2276 12.5,85C 13.0712,86.2051 13.7379,87.3717 14.5,88.5C 15.1924,87.9747 15.6924,87.3081 16,86.5C 16.6667,88.1667 16.6667,89.8333 16,91.5C 12.6064,92.4558 9.10636,92.7892 5.5,92.5C 5.5,81.1667 5.5,69.8333 5.5,58.5C 5.5,58.1667 5.5,57.8333 5.5,57.5C 6.59302,55.6508 7.92635,53.9842 9.5,52.5 Z"/></g>
<g><path style="opacity:1" fill="#1c693f" d="M 82.5,53.5 C 82.9321,54.7095 83.5987,55.7095 84.5,56.5C 85.5676,57.4345 86.901,57.7678 88.5,57.5C 88.7989,59.604 88.4656,61.604 87.5,63.5C 86.4822,62.8075 85.4822,62.1408 84.5,61.5C 83.596,62.209 83.2627,63.209 83.5,64.5C 83.1667,64.5 82.8333,64.5 82.5,64.5C 81.8333,64.5 81.5,64.8333 81.5,65.5C 80.828,66.2674 79.9947,66.9341 79,67.5C 77.6703,66.4178 76.1703,65.7512 74.5,65.5C 73.5386,67.2646 73.2053,69.2646 73.5,71.5C 71.8333,71.5 70.1667,71.5 68.5,71.5C 68.824,64.6457 68.4907,57.979 67.5,51.5C 69.5896,50.9838 71.9229,50.9838 74.5,51.5C 76.6413,51.3868 78.4747,50.7201 80,49.5C 80.2004,51.3197 81.0337,52.653 82.5,53.5 Z M 74.5,57.5 C 74.3691,58.3764 74.7025,59.0431 75.5,59.5C 76.463,59.0302 76.463,58.3635 75.5,57.5C 76.1667,57.5 76.8333,57.5 77.5,57.5C 77.4142,58.4959 77.7476,59.3292 78.5,60C 76.8659,60.4935 75.1992,60.6602 73.5,60.5C 73.2627,59.209 73.596,58.209 74.5,57.5 Z"/></g>
<g><path style="opacity:0.039" fill="#245246" d="M 74.5,57.5 C 74.8333,57.5 75.1667,57.5 75.5,57.5C 76.463,58.3635 76.463,59.0302 75.5,59.5C 74.7025,59.0431 74.3691,58.3764 74.5,57.5 Z"/></g>
<g><path style="opacity:0.016" fill="#3f403f" d="M 124.5,64.5 C 125.833,65.1667 125.833,65.1667 124.5,64.5 Z"/></g>
<g><path style="opacity:1" fill="#196b3e" d="M 182.5,55.5 C 183.096,61.7894 182.762,68.1227 181.5,74.5C 180.5,74.5 179.5,74.5 178.5,74.5C 178.421,73.0695 178.754,71.7362 179.5,70.5C 178.271,69.7189 176.938,69.2189 175.5,69C 176.381,68.2917 177.047,67.4584 177.5,66.5C 178.167,66.5 178.5,66.1667 178.5,65.5C 179.167,65.5 179.5,65.1667 179.5,64.5C 179.715,62.8212 179.048,61.8212 177.5,61.5C 177.5,61.8333 177.5,62.1667 177.5,62.5C 175.973,62.427 174.973,63.0937 174.5,64.5C 173.833,64.5 173.5,64.8333 173.5,65.5C 173.631,66.3764 173.298,67.0431 172.5,67.5C 171.005,66.2947 169.672,66.2947 168.5,67.5C 168.167,67.5 167.833,67.5 167.5,67.5C 165.895,66.0817 164.895,64.2484 164.5,62C 165.158,59.5003 166.491,59.0003 168.5,60.5C 169.954,59.4797 170.287,58.313 169.5,57C 173.904,55.5682 178.238,55.0682 182.5,55.5 Z M 177.5,61.5 C 179.048,61.8212 179.715,62.8212 179.5,64.5C 177.857,64.4802 176.524,65.1468 175.5,66.5C 174.893,66.3764 174.56,66.0431 174.5,65.5C 175.833,65.1667 175.833,64.8333 174.5,64.5C 174.973,63.0937 175.973,62.427 177.5,62.5C 177.5,62.1667 177.5,61.8333 177.5,61.5 Z"/></g>
<g><path style="opacity:1" fill="#1d683d" d="M 200.5,56.5 C 200.167,56.5 199.833,56.5 199.5,56.5C 198.903,56.7352 198.57,57.2352 198.5,58C 200.03,61.3814 201.197,64.8814 202,68.5C 204.135,70.2785 206.635,70.9452 209.5,70.5C 209.5,70.8333 209.5,71.1667 209.5,71.5C 204.035,73.2378 200.535,71.2378 199,65.5C 198.722,66.4158 198.222,67.0825 197.5,67.5C 197.167,64.8333 196.833,64.8333 196.5,67.5C 195.347,70.47 193.68,73.1367 191.5,75.5C 190.325,75.719 189.325,75.3857 188.5,74.5C 190.988,71.9067 190.988,69.5734 188.5,67.5C 188.672,66.5084 188.338,65.8417 187.5,65.5C 186.962,62.8111 186.295,60.1444 185.5,57.5C 186.325,56.6143 187.325,56.281 188.5,56.5C 188.833,56.5 189.167,56.5 189.5,56.5C 189.563,59.1951 190.563,60.1951 192.5,59.5C 191.913,60.7666 191.913,61.7666 192.5,62.5C 193.386,61.675 193.719,60.675 193.5,59.5C 194.401,58.7095 195.068,57.7095 195.5,56.5C 196.75,56.4226 197.583,55.756 198,54.5C 198.995,55.0659 199.828,55.7326 200.5,56.5 Z M 192.5,59.5 C 192.833,59.5 193.167,59.5 193.5,59.5C 193.719,60.675 193.386,61.675 192.5,62.5C 191.913,61.7666 191.913,60.7666 192.5,59.5 Z"/></g>
<g><path style="opacity:0.016" fill="#40803f" d="M 190.5,56.5 C 191.833,57.1667 191.833,57.1667 190.5,56.5 Z"/></g>
<g><path style="opacity:1" fill="#1c6a3d" d="M 229.5,57.5 C 229.795,58.8967 230.129,60.3967 230.5,62C 229.175,71.3771 228.009,71.5437 227,62.5C 226.617,63.056 226.117,63.3893 225.5,63.5C 224.292,62.218 222.958,62.218 221.5,63.5C 221.782,65.9866 221.782,68.6533 221.5,71.5C 219.833,71.5 218.167,71.5 216.5,71.5C 216.167,66.1667 215.833,66.1667 215.5,71.5C 213.5,71.5 211.5,71.5 209.5,71.5C 209.5,71.1667 209.5,70.8333 209.5,70.5C 210.871,68.7408 211.871,66.7408 212.5,64.5C 212.043,63.7025 211.376,63.3691 210.5,63.5C 210.158,62.6618 209.492,62.3284 208.5,62.5C 208.5,62.1667 208.5,61.8333 208.5,61.5C 208.5,60.8333 208.167,60.5 207.5,60.5C 208.793,59.3552 209.959,59.6885 211,61.5C 211.507,60.0039 211.007,58.8373 209.5,58C 210.056,57.6174 210.389,57.1174 210.5,56.5C 212.611,55.0319 214.444,55.3652 216,57.5C 220.303,55.5428 224.803,55.5428 229.5,57.5 Z"/></g>
<g><path style="opacity:0.02" fill="#336632" d="M 225.5,64.5 C 224.833,65.1667 224.833,65.1667 225.5,64.5 Z"/></g>
<g><path style="opacity:0.016" fill="#464646" d="M 122.5,64.5 C 123.525,64.8966 123.692,65.5632 123,66.5C 122.536,65.9056 122.369,65.2389 122.5,64.5 Z"/></g>
<g><path style="opacity:1" fill="#19683c" d="M 210.5,56.5 C 210.389,57.1174 210.056,57.6174 209.5,58C 211.007,58.8373 211.507,60.0039 211,61.5C 209.959,59.6885 208.793,59.3552 207.5,60.5C 206.443,61.206 206.776,61.5393 208.5,61.5C 208.5,61.8333 208.5,62.1667 208.5,62.5C 207.504,62.4142 206.671,62.7476 206,63.5C 206.148,64.825 205.982,65.9916 205.5,67C 208.192,67.3193 209.858,66.1526 210.5,63.5C 211.376,63.3691 212.043,63.7025 212.5,64.5C 211.871,66.7408 210.871,68.7408 209.5,70.5C 206.635,70.9452 204.135,70.2785 202,68.5C 201.197,64.8814 200.03,61.3814 198.5,58C 198.57,57.2352 198.903,56.7352 199.5,56.5C 199.833,59.1667 200.167,59.1667 200.5,56.5C 204.263,55.1943 207.596,55.1943 210.5,56.5 Z"/></g>
<g><path style="opacity:0.678" fill="#276545" d="M 188.5,56.5 C 187.325,56.281 186.325,56.6143 185.5,57.5C 186.295,60.1444 186.962,62.8111 187.5,65.5C 187.217,66.2891 186.717,66.9558 186,67.5C 185.667,64.8333 185.333,62.1667 185,59.5C 184.549,64.2388 184.215,68.9054 184,73.5C 185.399,72.7734 186.899,72.2734 188.5,72C 189.161,70.1397 189.161,68.6397 188.5,67.5C 190.988,69.5734 190.988,71.9067 188.5,74.5C 189.325,75.3857 190.325,75.719 191.5,75.5C 191.631,76.3764 191.298,77.0431 190.5,77.5C 187.14,76.4636 183.974,75.7969 181,75.5C 180.167,76.5 179.333,77.5 178.5,78.5C 177.01,94.4593 175.844,94.4593 175,78.5C 173.605,77.1854 172.605,77.5188 172,79.5C 170.716,76.1926 169.383,72.8593 168,69.5C 167.31,70.7383 166.81,70.7383 166.5,69.5C 166.5,68.8333 166.833,68.5 167.5,68.5C 169.224,68.5393 169.557,68.206 168.5,67.5C 169.672,66.2947 171.005,66.2947 172.5,67.5C 173.298,67.0431 173.631,66.3764 173.5,65.5C 173.833,65.5 174.167,65.5 174.5,65.5C 174.56,66.0431 174.893,66.3764 175.5,66.5C 176.524,65.1468 177.857,64.4802 179.5,64.5C 179.5,65.1667 179.167,65.5 178.5,65.5C 177.833,65.5 177.5,65.8333 177.5,66.5C 177.047,67.4584 176.381,68.2917 175.5,69C 176.938,69.2189 178.271,69.7189 179.5,70.5C 178.754,71.7362 178.421,73.0695 178.5,74.5C 179.5,74.5 180.5,74.5 181.5,74.5C 182.762,68.1227 183.096,61.7894 182.5,55.5C 184.142,55.5936 185.975,55.2603 188,54.5C 188.464,55.0944 188.631,55.7611 188.5,56.5 Z"/></g>
<g><path style="opacity:0.008" fill="#00807f" d="M 224.5,66.5 C 225.833,67.1667 225.833,67.1667 224.5,66.5 Z"/></g>
<g><path style="opacity:0.004" fill="#112222" d="M 231.5,66.5 C 232.573,67.2506 232.74,68.2506 232,69.5C 231.517,68.552 231.351,67.552 231.5,66.5 Z"/></g>
<g><path style="opacity:1" fill="#226541" d="M 95.5,55.5 C 96.5417,56.7911 97.7083,56.7911 99,55.5C 99.6008,57.3588 100.434,57.6921 101.5,56.5C 102.396,55.4937 103.062,55.4937 103.5,56.5C 100.974,59.5221 100.307,62.8554 101.5,66.5C 102.489,64.4138 103.822,62.7471 105.5,61.5C 105.833,61.5 106.167,61.5 106.5,61.5C 106.5,61.8333 106.5,62.1667 106.5,62.5C 106.5,63.1667 106.167,63.5 105.5,63.5C 105.5,63.8333 105.5,64.1667 105.5,64.5C 106.833,64.5 107.5,65.1667 107.5,66.5C 106.733,67.172 106.066,68.0053 105.5,69C 107.927,69.9023 110.26,70.7356 112.5,71.5C 112.44,72.0431 112.107,72.3764 111.5,72.5C 108.891,71.7695 106.224,71.2695 103.5,71C 102.069,70.5348 100.903,69.7014 100,68.5C 97.4631,70.4319 94.7965,72.0986 92,73.5C 89.7497,72.2921 87.583,70.9587 85.5,69.5C 84.1934,70.8155 82.6934,71.8155 81,72.5C 79.6048,69.9208 77.4381,67.5874 74.5,65.5C 76.1703,65.7512 77.6703,66.4178 79,67.5C 79.9947,66.9341 80.828,66.2674 81.5,65.5C 82.1667,65.5 82.5,65.1667 82.5,64.5C 82.8333,64.5 83.1667,64.5 83.5,64.5C 84.5071,64.5476 84.8404,63.5476 84.5,61.5C 85.4822,62.1408 86.4822,62.8075 87.5,63.5C 88.4656,61.604 88.7989,59.604 88.5,57.5C 86.901,57.7678 85.5676,57.4345 84.5,56.5C 85.6828,56.8442 86.5161,56.1775 87,54.5C 89.0068,58.1862 90.0068,62.1862 90,66.5C 90.9745,64.1224 91.6411,64.4557 92,67.5C 93.869,63.6204 95.0356,59.6204 95.5,55.5 Z"/></g>
<g><path style="opacity:0.004" fill="#132b2b" d="M 90.5,59.5 C 91.525,59.8966 91.6917,60.5632 91,61.5C 90.5357,60.9056 90.369,60.2389 90.5,59.5 Z"/></g>
<g><path style="opacity:0.016" fill="#545454" d="M 92.5,56.5 C 93.525,56.8966 93.6917,57.5632 93,58.5C 92.5357,57.9056 92.369,57.2389 92.5,56.5 Z"/></g>
<g><path style="opacity:0.012" fill="#545554" d="M 101.5,56.5 C 100.833,55.1667 100.833,55.1667 101.5,56.5 Z"/></g>
<g><path style="opacity:0.02" fill="#336665" d="M 122.5,68.5 C 123.833,69.1667 123.833,69.1667 122.5,68.5 Z"/></g>
<g><path style="opacity:1" fill="#1a673e" d="M 168.5,60.5 C 166.491,59.0003 165.158,59.5003 164.5,62C 164.895,64.2484 165.895,66.0817 167.5,67.5C 167.5,67.8333 167.5,68.1667 167.5,68.5C 166.833,68.5 166.5,68.8333 166.5,69.5C 163.221,73.1187 159.554,73.452 155.5,70.5C 155.167,69.8333 154.833,69.1667 154.5,68.5C 154.821,67.1825 155.154,65.8492 155.5,64.5C 155.182,63.3527 154.516,62.5194 153.5,62C 154.582,60.6703 155.249,59.1703 155.5,57.5C 154.537,56.6365 154.537,55.9698 155.5,55.5C 158.002,55.6213 160.668,55.7879 163.5,56C 165.708,57.0475 167.374,58.5475 168.5,60.5 Z M 159.5,62.5 C 162.68,62.1762 163.847,63.5096 163,66.5C 162.667,65.8333 162.333,65.1667 162,64.5C 161.751,65.624 161.251,66.624 160.5,67.5C 160.167,66.8333 159.833,66.1667 159.5,65.5C 157.634,66.5628 157.134,65.8961 158,63.5C 159.107,64.7119 159.607,64.3786 159.5,62.5 Z"/></g>
<g><path style="opacity:0.004" fill="#1d241d" d="M 196.5,67.5 C 196.833,67.5 197.167,67.5 197.5,67.5C 197.167,70.1667 196.833,70.1667 196.5,67.5 Z"/></g>
<g><path style="opacity:0.004" fill="#000000" d="M 225.5,69.5 C 224.833,68.1667 224.833,68.1667 225.5,69.5 Z"/></g>
<g><path style="opacity:0.004" fill="#1f1f1f" d="M 66.5,68.5 C 67.525,68.8966 67.6917,69.5632 67,70.5C 66.5357,69.9056 66.369,69.2389 66.5,68.5 Z"/></g>
<g><path style="opacity:0.004" fill="#172416" d="M 233.5,68.5 C 234.525,68.8966 234.692,69.5632 234,70.5C 233.536,69.9056 233.369,69.2389 233.5,68.5 Z"/></g>
<g><path style="opacity:1" fill="#159d51" d="M 56.5,53.5 C 57.4959,53.4142 58.3292,53.7476 59,54.5C 59.498,57.4816 59.6646,60.4816 59.5,63.5C 58.5,63.5 57.5,63.5 56.5,63.5C 55.2323,67.1576 53.8989,70.8243 52.5,74.5C 54.5,74.1667 56.5,73.8333 58.5,73.5C 58.3259,75.861 57.9926,78.1944 57.5,80.5C 56.448,80.6495 55.448,80.4828 54.5,80C 55.7112,79.1072 55.7112,78.2739 54.5,77.5C 51.1358,78.4269 48.3025,77.4269 46,74.5C 44.9887,75.3366 43.8221,75.67 42.5,75.5C 42.3505,74.448 42.5172,73.448 43,72.5C 45.3651,71.7109 47.5318,70.5442 49.5,69C 50.8228,68.1841 51.4894,67.0174 51.5,65.5C 52.3063,64.1325 53.3063,62.7992 54.5,61.5C 53.6072,58.9159 53.2739,56.2492 53.5,53.5C 54.5,53.5 55.5,53.5 56.5,53.5 Z"/></g>
<g><path style="opacity:0.027" fill="#486d48" d="M 155.5,70.5 C 154.833,71.1667 154.833,71.1667 155.5,70.5 Z"/></g>
<g><path style="opacity:0.004" fill="#000000" d="M 199.5,70.5 C 200.833,71.1667 200.833,71.1667 199.5,70.5 Z"/></g>
<g><path style="opacity:0.004" fill="#000000" d="M 116.5,72.5 C 117.833,73.1667 117.833,73.1667 116.5,72.5 Z"/></g>
<g><path style="opacity:0.004" fill="#000000" d="M 167.5,72.5 C 168.833,73.1667 168.833,73.1667 167.5,72.5 Z"/></g>
<g><path style="opacity:0.988" fill="#377c59" d="M 46.5,51.5 C 43.8405,50.6529 41.1738,50.1529 38.5,50C 42.1932,51.0264 44.5265,53.3598 45.5,57C 44.6747,59.7781 44.008,62.6114 43.5,65.5C 42.2905,65.9321 41.2905,66.5987 40.5,67.5C 37.1761,69.1673 34.1761,71.3339 31.5,74C 33.6437,74.7921 34.977,76.2921 35.5,78.5C 34.1825,78.179 32.8492,77.8457 31.5,77.5C 29.8228,78.1869 28.1561,78.8535 26.5,79.5C 24.6441,73.7181 23.9774,67.7181 24.5,61.5C 25.2216,61.9175 25.7216,62.5842 26,63.5C 26.498,66.4816 26.6646,69.4816 26.5,72.5C 34.3573,70.4158 40.024,65.7492 43.5,58.5C 43.0183,56.0801 41.685,54.2468 39.5,53C 34.8984,51.8776 30.2318,51.3776 25.5,51.5C 25.7947,53.7354 25.4614,55.7354 24.5,57.5C 24.5,54.8333 24.5,52.1667 24.5,49.5C 22.8561,49.2865 21.3561,49.6198 20,50.5C 20.5972,60.0741 20.4305,69.7408 19.5,79.5C 18.3249,69.4013 18.3249,59.0679 19.5,48.5C 27.1667,47.1667 34.8333,47.1667 42.5,48.5C 44.1836,49.1497 45.5169,50.1497 46.5,51.5 Z"/></g>
<g><path style="opacity:1" fill="#1b9954" d="M 24.5,61.5 C 24.5,60.1667 24.5,58.8333 24.5,57.5C 25.4614,55.7354 25.7947,53.7354 25.5,51.5C 30.2318,51.3776 34.8984,51.8776 39.5,53C 41.685,54.2468 43.0183,56.0801 43.5,58.5C 40.024,65.7492 34.3573,70.4158 26.5,72.5C 26.6646,69.4816 26.498,66.4816 26,63.5C 25.7216,62.5842 25.2216,61.9175 24.5,61.5 Z"/></g>
<g><path style="opacity:0.012" fill="#545554" d="M 63.5,74.5 C 64.8333,75.1667 64.8333,75.1667 63.5,74.5 Z"/></g>
<g><path style="opacity:0.004" fill="#000000" d="M 169.5,76.5 C 170.833,77.1667 170.833,77.1667 169.5,76.5 Z"/></g>
<g><path style="opacity:1" fill="#1a9a53" d="M 57.5,80.5 C 56.1347,83.8654 53.8014,86.1987 50.5,87.5C 49.5,87.1667 48.5,86.8333 47.5,86.5C 46.3339,82.8343 44.6672,79.501 42.5,76.5C 42.5,76.1667 42.5,75.8333 42.5,75.5C 43.8221,75.67 44.9887,75.3366 46,74.5C 48.3025,77.4269 51.1358,78.4269 54.5,77.5C 55.7112,78.2739 55.7112,79.1072 54.5,80C 55.448,80.4828 56.448,80.6495 57.5,80.5 Z"/></g>
<g><path style="opacity:0.004" fill="#000000" d="M 119.5,80.5 C 118.833,79.1667 118.833,79.1667 119.5,80.5 Z"/></g>
<g><path style="opacity:0.039" fill="#4c4d4c" d="M 79.5,80.5 C 80.8333,81.1667 80.8333,81.1667 79.5,80.5 Z"/></g>
<g><path style="opacity:0.004" fill="#000000" d="M 87.5,80.5 C 88.8333,81.1667 88.8333,81.1667 87.5,80.5 Z"/></g>
<g><path style="opacity:0.004" fill="#000000" d="M 117.5,81.5 C 116.833,80.1667 116.833,80.1667 117.5,81.5 Z"/></g>
<g><path style="opacity:0.024" fill="#393939" d="M 182.5,81.5 C 182.897,80.475 183.563,80.3083 184.5,81C 183.906,81.4643 183.239,81.631 182.5,81.5 Z"/></g>
<g><path style="opacity:0.012" fill="#545554" d="M 95.5,82.5 C 94.8333,81.1667 94.8333,81.1667 95.5,82.5 Z"/></g>
<g><path style="opacity:0.027" fill="#486d48" d="M 136.5,81.5 C 137.833,82.1667 137.833,82.1667 136.5,81.5 Z"/></g>
<g><path style="opacity:0.016" fill="#424242" d="M 154.5,82.5 C 154.897,81.475 155.563,81.3083 156.5,82C 155.906,82.4643 155.239,82.631 154.5,82.5 Z"/></g>
<g><path style="opacity:0.031" fill="#2f493a" d="M 204.5,82.5 C 204.56,81.9569 204.893,81.6236 205.5,81.5C 206.773,82.2565 206.773,82.9232 205.5,83.5C 205.5,82.8333 205.167,82.5 204.5,82.5 Z"/></g>
<g><path style="opacity:0.016" fill="#4a7147" d="M 117.5,81.5 C 118.833,82.1667 118.833,82.8333 117.5,83.5C 117.5,82.8333 117.5,82.1667 117.5,81.5 Z"/></g>
<g><path style="opacity:0.031" fill="#314738" d="M 95.5,82.5 C 95.8333,82.5 96.1667,82.5 96.5,82.5C 96.5,83.1667 96.5,83.8333 96.5,84.5C 94.3023,84.5912 93.9689,83.9245 95.5,82.5 Z"/></g>
<g><path style="opacity:0.773" fill="#366247" d="M 101.5,81.5 C 102.222,81.0825 102.722,80.4158 103,79.5C 103.816,80.8228 104.983,81.4894 106.5,81.5C 106.5,81.1667 106.5,80.8333 106.5,80.5C 108.799,79.0677 110.465,79.7344 111.5,82.5C 113.481,81.9114 115.481,82.2447 117.5,83.5C 118.833,85.5 118.833,87.5 117.5,89.5C 116.833,89.5 116.5,89.8333 116.5,90.5C 115.209,90.2627 114.209,90.596 113.5,91.5C 111.989,89.5242 111.156,87.1909 111,84.5C 111.534,89.4669 109.367,91.4669 104.5,90.5C 103.5,89.1667 102.5,89.1667 101.5,90.5C 100.222,90.2178 99.2223,89.5511 98.5,88.5C 98.1667,85.8333 97.8333,85.8333 97.5,88.5C 95.8906,87.3346 95.5573,86.0012 96.5,84.5C 97.8333,83.8333 97.8333,83.1667 96.5,82.5C 96.281,81.325 96.6143,80.325 97.5,79.5C 98.4255,80.6405 99.2588,80.6405 100,79.5C 100.717,80.0442 101.217,80.7109 101.5,81.5 Z M 106.5,81.5 C 107.465,82.7211 107.298,84.0544 106,85.5C 105.421,84.0715 105.588,82.7382 106.5,81.5 Z M 101.5,81.5 C 101.719,82.675 101.386,83.675 100.5,84.5C 99.3347,83.1405 99.668,82.1405 101.5,81.5 Z"/></g>
<g><path style="opacity:0.035" fill="#545554" d="M 106.5,80.5 C 105.833,79.1667 105.833,79.1667 106.5,80.5 Z"/></g>
<g><path style="opacity:0.257" fill="#367553" d="M 62.5,74.5 C 64.2479,77.1757 63.5812,79.009 60.5,80C 59.1026,84.7835 55.936,88.6168 51,91.5C 49.6667,90.8333 48.3333,90.1667 47,89.5C 46.1166,86.8976 44.6166,84.7309 42.5,83C 42.8333,82.6667 43.1667,82.3333 43.5,82C 41.393,80.7365 40.393,78.9032 40.5,76.5C 41.1667,76.5 41.8333,76.5 42.5,76.5C 44.6672,79.501 46.3339,82.8343 47.5,86.5C 48.5,86.8333 49.5,87.1667 50.5,87.5C 53.8014,86.1987 56.1347,83.8654 57.5,80.5C 58.709,78.0592 60.3757,76.0592 62.5,74.5 Z"/></g>
<g><path style="opacity:0.086" fill="#3c5d46" d="M 79.5,80.5 C 78.1667,80.8333 78.1667,81.1667 79.5,81.5C 81.0607,83.9206 82.5607,83.9206 84,81.5C 84.9503,82.0223 85.7836,82.689 86.5,83.5C 87.1067,83.3764 87.44,83.0431 87.5,82.5C 88.4959,82.5858 89.3292,82.2524 90,81.5C 90.8996,82.7702 92.0663,83.7702 93.5,84.5C 92.8333,84.8333 92.1667,85.1667 91.5,85.5C 92.0253,86.1924 92.6919,86.6924 93.5,87C 91.5188,87.6054 91.1854,88.6054 92.5,90C 90.0709,90.7033 87.7375,90.5366 85.5,89.5C 84.0226,84.2958 83.3559,84.6292 83.5,90.5C 82.448,90.6495 81.448,90.4828 80.5,90C 81.5171,88.9505 81.6838,87.7839 81,86.5C 80.6827,88.3008 80.016,88.6341 79,87.5C 78.5172,88.448 78.3505,89.448 78.5,90.5C 77.8333,90.5 77.1667,90.5 76.5,90.5C 76.6567,89.1266 76.49,87.7932 76,86.5C 74.7964,87.4706 74.2964,88.4706 74.5,89.5C 73.0133,84.3428 72.3466,84.6761 72.5,90.5C 71.391,90.4431 70.391,90.1098 69.5,89.5C 70.4731,87.9317 70.6397,86.265 70,84.5C 69.6667,85.5 69.3333,86.5 69,87.5C 68.7896,84.7658 67.9563,82.2658 66.5,80C 69.4816,79.502 72.4816,79.3354 75.5,79.5C 75.8333,84.8333 76.1667,84.8333 76.5,79.5C 77.791,79.2627 78.791,79.596 79.5,80.5 Z"/></g>
<g><path style="opacity:0.012" fill="#545554" d="M 87.5,81.5 C 87.5,81.8333 87.5,82.1667 87.5,82.5C 86.8299,82.0187 86.8299,81.6853 87.5,81.5 Z"/></g>
<g><path style="opacity:0.286" fill="#336249" d="M 200.5,83.5 C 201.708,82.7659 203.041,82.4326 204.5,82.5C 205.167,82.5 205.5,82.8333 205.5,83.5C 206.159,86.4082 206.993,86.7416 208,84.5C 208.825,86.7008 208.325,88.5341 206.5,90C 204.567,90.2511 202.734,90.7511 201,91.5C 200.667,91.1667 200.333,90.8333 200,90.5C 199.612,92.7147 198.612,94.048 197,94.5C 196.667,93.8333 196.333,93.1667 196,92.5C 195.329,93.2524 194.496,93.5858 193.5,93.5C 192.399,91.6061 191.066,90.9394 189.5,91.5C 188.048,90.6981 186.382,90.1981 184.5,90C 182.782,85.2543 181.782,85.421 181.5,90.5C 179.815,89.8163 178.815,88.483 178.5,86.5C 179.06,84.1463 179.727,81.813 180.5,79.5C 181.308,81.4233 181.808,83.4233 182,85.5C 182.284,83.1144 183.284,82.4477 185,83.5C 186.441,82.7402 187.941,82.0736 189.5,81.5C 189.489,82.4415 189.989,83.1081 191,83.5C 192.011,83.1081 192.511,82.4415 192.5,81.5C 195.311,82.0796 197.977,82.7463 200.5,83.5 Z M 200.5,83.5 C 199.815,85.4144 199.315,87.4144 199,89.5C 198.833,88.5 198.667,87.5 198.5,86.5C 198.64,84.9704 199.307,83.9704 200.5,83.5 Z M 189.5,84.5 C 190.239,84.369 190.906,84.5357 191.5,85C 190.783,86.6524 190.45,88.1524 190.5,89.5C 189.548,87.9547 189.215,86.288 189.5,84.5 Z"/></g>
<g><path style="opacity:0.02" fill="#356035" d="M 161.5,86.5 C 160.475,86.1034 160.308,85.4368 161,84.5C 161.464,85.0944 161.631,85.7611 161.5,86.5 Z"/></g>
<g><path style="opacity:0.016" fill="#3f403f" d="M 161.5,86.5 C 161.833,86.5 162.167,86.5 162.5,86.5C 162.315,87.1701 161.981,87.1701 161.5,86.5 Z"/></g>
<g><path style="opacity:0.02" fill="#315c42" d="M 165.5,81.5 C 165.56,82.0431 165.893,82.3764 166.5,82.5C 167.281,81.2634 168.281,80.2634 169.5,79.5C 169.76,80.9049 170.093,82.2382 170.5,83.5C 170.663,85.8568 170.497,88.1902 170,90.5C 169.667,90.1667 169.333,89.8333 169,89.5C 168.722,90.4158 168.222,91.0825 167.5,91.5C 166.811,90.2264 165.977,90.2264 165,91.5C 164.626,89.5087 163.793,87.842 162.5,86.5C 161.551,83.7925 161.551,81.1258 162.5,78.5C 163.141,79.9935 164.141,80.9935 165.5,81.5 Z"/></g>
<g><path style="opacity:0.024" fill="#545554" d="M 165.5,80.5 C 166.833,81.1667 166.833,81.1667 165.5,80.5 Z"/></g>
<g><path style="opacity:0.012" fill="#545554" d="M 165.5,80.5 C 164.833,79.1667 164.833,79.1667 165.5,80.5 Z"/></g>
<g><path style="opacity:0.561" fill="#35634d" d="M 170.5,83.5 C 171.561,79.9063 172.895,79.7396 174.5,83C 173.88,85.4728 173.214,87.9728 172.5,90.5C 171.832,88.0312 171.165,85.6979 170.5,83.5 Z"/></g>
<g><path style="opacity:0.729" fill="#305a40" d="M 133.5,83.5 C 133.561,85.5922 134.561,87.0922 136.5,88C 136.272,88.3988 135.938,88.5654 135.5,88.5C 134.778,89.5511 133.778,90.2178 132.5,90.5C 132.649,89.448 132.483,88.448 132,87.5C 131.082,89.3757 129.582,90.3757 127.5,90.5C 127.167,87.8333 126.833,87.8333 126.5,90.5C 124.666,89.506 122.999,89.506 121.5,90.5C 120.833,90.5 120.167,90.5 119.5,90.5C 119.5,87.1667 119.5,83.8333 119.5,80.5C 120.648,79.105 121.648,79.2716 122.5,81C 122.335,82.1169 122.002,83.2836 121.5,84.5C 122.098,85.7946 122.598,87.1279 123,88.5C 123.179,85.4465 123.679,82.4465 124.5,79.5C 125.971,80.3805 126.804,81.7139 127,83.5C 129.163,82.232 131.33,82.232 133.5,83.5 Z"/></g>
<g><path style="opacity:0.016" fill="#222222" d="M 157.5,89.5 C 157.351,88.448 157.517,87.448 158,86.5C 158.74,87.7494 158.573,88.7494 157.5,89.5 Z"/></g>
<g><path style="opacity:0.545" fill="#336143" d="M 154.5,82.5 C 155.091,83.1515 155.757,83.8182 156.5,84.5C 155.948,86.0026 155.948,87.6693 156.5,89.5C 155.167,89.8333 155.167,90.1667 156.5,90.5C 156.217,91.2891 155.717,91.9558 155,92.5C 153.951,90.8934 152.451,90.2267 150.5,90.5C 149.833,89.1667 149.167,89.1667 148.5,90.5C 146.784,90.3713 145.117,90.038 143.5,89.5C 143.167,88.1667 142.833,88.1667 142.5,89.5C 139.784,91.0861 137.45,90.7528 135.5,88.5C 135.938,88.5654 136.272,88.3988 136.5,88C 134.561,87.0922 133.561,85.5922 133.5,83.5C 134.365,83.4361 135.365,83.1027 136.5,82.5C 137.994,83.3986 139.494,83.0653 141,81.5C 142.667,85.5 144.333,85.5 146,81.5C 148.869,82.853 151.702,83.1864 154.5,82.5 Z"/></g>
<g><path style="opacity:0.004" fill="#000000" d="M 161.5,88.5 C 162.833,89.1667 162.833,89.1667 161.5,88.5 Z"/></g>
<g><path style="opacity:0.016" fill="#3f403f" d="M 69.5,89.5 C 68.8333,90.1667 68.8333,90.1667 69.5,89.5 Z"/></g>
<g><path style="opacity:0.012" fill="#4b5b4a" d="M 97.5,88.5 C 97.8333,88.5 98.1667,88.5 98.5,88.5C 98.1667,91.1667 97.8333,91.1667 97.5,88.5 Z"/></g>
<g><path style="opacity:0.02" fill="#336632" d="M 117.5,89.5 C 118.167,89.5 118.5,89.8333 118.5,90.5C 118.167,90.1667 117.833,89.8333 117.5,89.5 Z"/></g>
<g><path style="opacity:0.024" fill="#2a5554" d="M 156.5,89.5 C 156.833,89.5 157.167,89.5 157.5,89.5C 157.315,90.1701 156.981,90.1701 156.5,89.5 Z"/></g>
<g><path style="opacity:1" fill="#1d9855" d="M 35.5,78.5 C 36.8333,83.1667 38.1667,87.8333 39.5,92.5C 35.441,92.5659 31.441,92.7326 27.5,93C 26.5333,88.5986 26.2,84.0986 26.5,79.5C 28.1561,78.8535 29.8228,78.1869 31.5,77.5C 32.8492,77.8457 34.1825,78.179 35.5,78.5 Z"/></g>
<g><path style="opacity:0.027" fill="#484948" d="M 72.5,90.5 C 73.8333,91.1667 73.8333,91.1667 72.5,90.5 Z"/></g>
<g><path style="opacity:0.004" fill="#000000" d="M 76.5,90.5 C 75.8333,91.1667 75.8333,91.1667 76.5,90.5 Z"/></g>
<g><path style="opacity:0.012" fill="#545554" d="M 78.5,90.5 C 79.8333,91.1667 79.8333,91.1667 78.5,90.5 Z"/></g>
<g><path style="opacity:0.012" fill="#515d51" d="M 85.5,89.5 C 85.631,90.2389 85.4643,90.9056 85,91.5C 84.3083,90.5632 84.475,89.8966 85.5,89.5 Z"/></g>
<g><path style="opacity:0.055" fill="#485b48" d="M 101.5,90.5 C 102.833,91.1667 102.833,91.1667 101.5,90.5 Z"/></g>
<g><path style="opacity:0.02" fill="#336665" d="M 104.5,90.5 C 103.833,91.1667 103.833,91.1667 104.5,90.5 Z"/></g>
<g><path style="opacity:0.02" fill="#336632" d="M 110.5,90.5 C 111.833,91.1667 111.833,91.1667 110.5,90.5 Z"/></g>
<g><path style="opacity:0.012" fill="#545554" d="M 116.5,90.5 C 116.833,90.5 117.167,90.5 117.5,90.5C 117.315,91.1701 116.981,91.1701 116.5,90.5 Z"/></g>
<g><path style="opacity:0.004" fill="#000000" d="M 118.5,90.5 C 118.833,90.5 119.167,90.5 119.5,90.5C 119.315,91.1701 118.981,91.1701 118.5,90.5 Z"/></g>
<g><path style="opacity:0.004" fill="#000000" d="M 121.5,90.5 C 122.833,91.1667 122.833,91.1667 121.5,90.5 Z"/></g>
<g><path style="opacity:0.008" fill="#7f807f" d="M 126.5,90.5 C 126.833,90.5 127.167,90.5 127.5,90.5C 127.315,91.1701 126.981,91.1701 126.5,90.5 Z"/></g>
<g><path style="opacity:0.012" fill="#545554" d="M 132.5,90.5 C 131.833,91.1667 131.833,91.1667 132.5,90.5 Z"/></g>
<g><path style="opacity:0.004" fill="#213332" d="M 142.5,89.5 C 142.833,89.5 143.167,89.5 143.5,89.5C 144.463,90.3635 144.463,91.0302 143.5,91.5C 142.702,91.0431 142.369,90.3764 142.5,89.5 Z"/></g>
<g><path style="opacity:0.016" fill="#3f403f" d="M 181.5,90.5 C 182.833,91.1667 182.833,91.1667 181.5,90.5 Z"/></g>
<g><path style="opacity:0.027" fill="#484948" d="M 87.5,91.5 C 88.8333,92.1667 88.8333,92.1667 87.5,91.5 Z"/></g>
<g><path style="opacity:0.024" fill="#545554" d="M 89.5,91.5 C 90.8333,92.1667 90.8333,92.1667 89.5,91.5 Z"/></g>
<g><path style="opacity:0.004" fill="#26302f" d="M 113.5,91.5 C 114.5,91.5 115.5,91.5 116.5,91.5C 115.5,92.8333 114.5,92.8333 113.5,91.5 Z"/></g>
<g><path style="opacity:0.012" fill="#545554" d="M 145.5,91.5 C 146.833,92.1667 146.833,92.1667 145.5,91.5 Z"/></g>
<g><path style="opacity:0.008" fill="#636e61" d="M 148.5,90.5 C 149.167,90.5 149.833,90.5 150.5,90.5C 149.452,92.9327 148.786,92.9327 148.5,90.5 Z"/></g>
<g><path style="opacity:0.031" fill="#40605f" d="M 152.5,91.5 C 153.833,92.1667 153.833,92.1667 152.5,91.5 Z"/></g>
<g><path style="opacity:0.004" fill="#000000" d="M 167.5,91.5 C 166.833,92.1667 166.833,92.1667 167.5,91.5 Z"/></g>
<g><path style="opacity:0.004" fill="#000000" d="M 171.5,91.5 C 172.833,92.1667 172.833,92.1667 171.5,91.5 Z"/></g>
<g><path style="opacity:0.008" fill="#7f807f" d="M 176.5,91.5 C 177.833,92.1667 177.833,92.1667 176.5,91.5 Z"/></g>
<g><path style="opacity:0.016" fill="#464646" d="M 189.5,91.5 C 189.103,92.525 188.437,92.6917 187.5,92C 188.094,91.5357 188.761,91.369 189.5,91.5 Z"/></g>
<g><path style="opacity:0.004" fill="#000000" d="M 204.5,91.5 C 205.833,92.1667 205.833,92.1667 204.5,91.5 Z"/></g>
<g><path style="opacity:1" fill="#337c53" d="M 35.5,78.5 C 37.2327,79.0076 37.566,79.841 36.5,81C 40.1959,85.2087 42.0292,90.0421 42,95.5C 41.586,95.0426 41.086,94.7093 40.5,94.5C 40.5105,95.4415 40.0105,96.1081 39,96.5C 35.2062,95.7703 31.3728,95.2703 27.5,95C 26.6919,94.6924 26.0253,94.1924 25.5,93.5C 24.8982,91.3921 24.5649,89.2254 24.5,87C 24.2999,84.1345 24.9666,81.6345 26.5,79.5C 26.2,84.0986 26.5333,88.5986 27.5,93C 31.441,92.7326 35.441,92.5659 39.5,92.5C 38.1667,87.8333 36.8333,83.1667 35.5,78.5 Z"/></g>
<g><path style="opacity:0.598" fill="#347653" d="M 19.5,36.5 C 16.1606,40.5061 12.4939,44.1727 8.5,47.5C 6.88085,50.6423 5.88085,53.9756 5.5,57.5C 5.5,57.8333 5.5,58.1667 5.5,58.5C 4.88258,58.6107 4.38258,58.944 4,59.5C 3.33333,70.5 3.33333,81.5 4,92.5C 8.0785,93.6295 12.2452,93.7961 16.5,93C 18.1142,88.6761 19.1142,84.1761 19.5,79.5C 20.9123,84.4018 20.579,89.4018 18.5,94.5C 17.5416,94.9528 16.7083,95.6195 16,96.5C 11.6667,95.8333 7.33333,95.1667 3,94.5C 2.33333,81.8333 2.33333,69.1667 3,56.5C 5.45572,47.2204 10.9557,40.5537 19.5,36.5 Z"/></g>
<g><path style="opacity:0.047" fill="#3f553f" d="M 193.5,93.5 C 192.833,94.1667 192.833,94.1667 193.5,93.5 Z"/></g>
<g><path style="opacity:0.008" fill="#7f807f" d="M 18.5,94.5 C 19.8333,95.1667 19.8333,95.1667 18.5,94.5 Z"/></g>
</svg>
